<svg id="visual" viewBox="0 0 900 200" width="900" height="200" xmlns="http://www.w3.org/2000/svg" xmlns:xlink="http://www.w3.org/1999/xlink" version="1.1"><rect x="0" y="0" width="900" height="200" fill="#a2a2a2"></rect><path d="M0 151L21.5 148.8C43 146.7 86 142.3 128.8 138.7C171.7 135 214.3 132 257.2 138C300 144 343 159 385.8 159.7C428.7 160.3 471.3 146.7 514.2 146.2C557 145.7 600 158.3 642.8 158.8C685.7 159.3 728.3 147.7 771.2 146C814 144.3 857 152.7 878.5 156.8L900 161L900 201L878.5 201C857 201 814 201 771.2 201C728.3 201 685.7 201 642.8 201C600 201 557 201 514.2 201C471.3 201 428.7 201 385.8 201C343 201 300 201 257.2 201C214.3 201 171.7 201 128.8 201C86 201 43 201 21.5 201L0 201Z" fill="#787878" stroke-linecap="round" stroke-linejoin="miter"></path></svg>