<svg id="visual" viewBox="0 0 900 250" width="900" height="250" xmlns="http://www.w3.org/2000/svg" xmlns:xlink="http://www.w3.org/1999/xlink" version="1.1"><path d="M0 79L8.8 76.8C17.7 74.7 35.3 70.3 53 70.3C70.7 70.3 88.3 74.7 106 76.8C123.7 79 141.3 79 159 79.8C176.7 80.7 194.3 82.3 212 80.2C229.7 78 247.3 72 265 73.2C282.7 74.3 300.3 82.7 318 88.2C335.7 93.7 353.3 96.3 371 92.2C388.7 88 406.3 77 423.8 72.3C441.3 67.7 458.7 69.3 476.2 70.7C493.7 72 511.3 73 529 69.7C546.7 66.3 564.3 58.7 582 59C599.7 59.3 617.3 67.7 635 69.8C652.7 72 670.3 68 688 67.7C705.7 67.3 723.3 70.7 741 72.3C758.7 74 776.3 74 794 75.7C811.7 77.3 829.3 80.7 847 83.5C864.7 86.3 882.3 88.7 891.2 89.8L900 91L900 0L891.2 0C882.3 0 864.7 0 847 0C829.3 0 811.7 0 794 0C776.3 0 758.7 0 741 0C723.3 0 705.7 0 688 0C670.3 0 652.7 0 635 0C617.3 0 599.7 0 582 0C564.3 0 546.7 0 529 0C511.3 0 493.7 0 476.2 0C458.7 0 441.3 0 423.8 0C406.3 0 388.7 0 371 0C353.3 0 335.7 0 318 0C300.3 0 282.7 0 265 0C247.3 0 229.7 0 212 0C194.3 0 176.7 0 159 0C141.3 0 123.7 0 106 0C88.3 0 70.7 0 53 0C35.3 0 17.7 0 8.8 0L0 0Z" fill="#282828"></path><path d="M0 116L8.8 116.5C17.7 117 35.3 118 53 117.2C70.7 116.3 88.3 113.7 106 116.2C123.7 118.7 141.3 126.3 159 128.5C176.7 130.7 194.3 127.3 212 125.7C229.7 124 247.3 124 265 123.5C282.7 123 300.3 122 318 123.2C335.7 124.3 353.3 127.7 371 124.3C388.7 121 406.3 111 423.8 106.5C441.3 102 458.7 103 476.2 105.2C493.7 107.3 511.3 110.7 529 111.8C546.7 113 564.3 112 582 114.5C599.7 117 617.3 123 635 121C652.7 119 670.3 109 688 107.3C705.7 105.7 723.3 112.3 741 115.7C758.7 119 776.3 119 794 118.2C811.7 117.3 829.3 115.7 847 116.5C864.7 117.3 882.3 120.7 891.2 122.3L900 124L900 89L891.2 87.8C882.3 86.7 864.7 84.3 847 81.5C829.3 78.7 811.7 75.3 794 73.7C776.3 72 758.7 72 741 70.3C723.3 68.7 705.7 65.3 688 65.7C670.3 66 652.7 70 635 67.8C617.3 65.7 599.7 57.3 582 57C564.3 56.7 546.7 64.3 529 67.7C511.3 71 493.7 70 476.2 68.7C458.7 67.3 441.3 65.7 423.8 70.3C406.3 75 388.7 86 371 90.2C353.3 94.3 335.7 91.7 318 86.2C300.3 80.7 282.7 72.3 265 71.2C247.3 70 229.7 76 212 78.2C194.3 80.3 176.7 78.7 159 77.8C141.3 77 123.7 77 106 74.8C88.3 72.7 70.7 68.3 53 68.3C35.3 68.3 17.7 72.7 8.8 74.8L0 77Z" fill="#181818"></path><path d="M0 156L8.8 154C17.7 152 35.3 148 53 147.2C70.7 146.3 88.3 148.7 106 152C123.7 155.3 141.3 159.7 159 162.2C176.7 164.7 194.3 165.3 212 164.5C229.7 163.7 247.3 161.3 265 160.2C282.7 159 300.3 159 318 161C335.7 163 353.3 167 371 163.7C388.7 160.3 406.3 149.7 423.8 142.2C441.3 134.7 458.7 130.3 476.2 131.2C493.7 132 511.3 138 529 141.3C546.7 144.7 564.3 145.3 582 148.7C599.7 152 617.3 158 635 156C652.7 154 670.3 144 688 143.2C705.7 142.3 723.3 150.7 741 154.3C758.7 158 776.3 157 794 157C811.7 157 829.3 158 847 160.2C864.7 162.3 882.3 165.7 891.2 167.3L900 169L900 122L891.2 120.3C882.3 118.7 864.7 115.3 847 114.5C829.3 113.7 811.7 115.3 794 116.2C776.3 117 758.7 117 741 113.7C723.3 110.3 705.7 103.7 688 105.3C670.3 107 652.7 117 635 119C617.3 121 599.7 115 582 112.5C564.3 110 546.7 111 529 109.8C511.3 108.7 493.7 105.3 476.2 103.2C458.7 101 441.3 100 423.8 104.5C406.3 109 388.7 119 371 122.3C353.3 125.7 335.7 122.3 318 121.2C300.3 120 282.7 121 265 121.5C247.3 122 229.7 122 212 123.7C194.3 125.3 176.7 128.7 159 126.5C141.3 124.3 123.7 116.7 106 114.2C88.3 111.7 70.7 114.3 53 115.2C35.3 116 17.7 115 8.8 114.5L0 114Z" fill="#000000"></path><path d="M0 184L8.8 180.7C17.7 177.3 35.3 170.7 53 169.3C70.7 168 88.3 172 106 175.3C123.7 178.7 141.3 181.3 159 184.3C176.7 187.3 194.3 190.7 212 190.2C229.7 189.7 247.3 185.3 265 184.8C282.7 184.3 300.3 187.7 318 189.8C335.7 192 353.3 193 371 189.7C388.7 186.3 406.3 178.7 423.8 173.7C441.3 168.7 458.7 166.3 476.2 166.8C493.7 167.3 511.3 170.7 529 171C546.7 171.3 564.3 168.7 582 170.7C599.7 172.7 617.3 179.3 635 180.2C652.7 181 670.3 176 688 176.8C705.7 177.7 723.3 184.3 741 187.7C758.7 191 776.3 191 794 189.3C811.7 187.7 829.3 184.3 847 185.7C864.7 187 882.3 193 891.2 196L900 199L900 167L891.2 165.3C882.3 163.7 864.7 160.3 847 158.2C829.3 156 811.7 155 794 155C776.3 155 758.7 156 741 152.3C723.3 148.7 705.7 140.3 688 141.2C670.3 142 652.7 152 635 154C617.3 156 599.7 150 582 146.7C564.3 143.3 546.7 142.7 529 139.3C511.3 136 493.7 130 476.2 129.2C458.7 128.3 441.3 132.7 423.8 140.2C406.3 147.7 388.7 158.3 371 161.7C353.3 165 335.7 161 318 159C300.3 157 282.7 157 265 158.2C247.3 159.3 229.7 161.7 212 162.5C194.3 163.3 176.7 162.7 159 160.2C141.3 157.7 123.7 153.3 106 150C88.3 146.7 70.7 144.3 53 145.2C35.3 146 17.7 150 8.8 152L0 154Z" fill="#000000"></path><path d="M0 251L8.8 251C17.7 251 35.3 251 53 251C70.7 251 88.3 251 106 251C123.7 251 141.3 251 159 251C176.7 251 194.3 251 212 251C229.7 251 247.3 251 265 251C282.7 251 300.3 251 318 251C335.7 251 353.3 251 371 251C388.7 251 406.3 251 423.8 251C441.3 251 458.7 251 476.2 251C493.7 251 511.3 251 529 251C546.7 251 564.3 251 582 251C599.7 251 617.3 251 635 251C652.7 251 670.3 251 688 251C705.7 251 723.3 251 741 251C758.7 251 776.3 251 794 251C811.7 251 829.3 251 847 251C864.7 251 882.3 251 891.2 251L900 251L900 197L891.2 194C882.3 191 864.7 185 847 183.7C829.3 182.3 811.7 185.7 794 187.3C776.3 189 758.7 189 741 185.7C723.3 182.3 705.7 175.7 688 174.8C670.3 174 652.7 179 635 178.2C617.3 177.3 599.7 170.7 582 168.7C564.3 166.7 546.7 169.3 529 169C511.3 168.7 493.7 165.3 476.2 164.8C458.7 164.3 441.3 166.7 423.8 171.7C406.3 176.7 388.7 184.3 371 187.7C353.3 191 335.7 190 318 187.8C300.3 185.7 282.7 182.3 265 182.8C247.3 183.3 229.7 187.7 212 188.2C194.3 188.7 176.7 185.3 159 182.3C141.3 179.3 123.7 176.7 106 173.3C88.3 170 70.7 166 53 167.3C35.3 168.7 17.7 175.3 8.8 178.7L0 182Z" fill="#000000"></path></svg>