<svg id="visual" viewBox="0 0 960 540" width="960" height="540" xmlns="http://www.w3.org/2000/svg" xmlns:xlink="http://www.w3.org/1999/xlink" version="1.1"><rect x="0" y="0" width="960" height="540" fill="#DFF5FF"></rect><path d="M0 477L22.8 465.5C45.7 454 91.3 431 137 428.2C182.7 425.3 228.3 442.7 274 449.2C319.7 455.7 365.3 451.3 411.2 447.3C457 443.3 503 439.7 548.8 431C594.7 422.3 640.3 408.7 686 411.7C731.7 414.7 777.3 434.3 823 446.7C868.7 459 914.3 464 937.2 466.5L960 469L960 541L937.2 541C914.3 541 868.7 541 823 541C777.3 541 731.7 541 686 541C640.3 541 594.7 541 548.8 541C503 541 457 541 411.2 541C365.3 541 319.7 541 274 541C228.3 541 182.7 541 137 541C91.3 541 45.7 541 22.8 541L0 541Z" fill="#67c6e3"></path><path d="M0 462L22.8 467.2C45.7 472.3 91.3 482.7 137 483C182.7 483.3 228.3 473.7 274 462.8C319.7 452 365.3 440 411.2 439.2C457 438.3 503 448.7 548.8 452.3C594.7 456 640.3 453 686 454.8C731.7 456.7 777.3 463.3 823 457.5C868.7 451.7 914.3 433.3 937.2 424.2L960 415L960 541L937.2 541C914.3 541 868.7 541 823 541C777.3 541 731.7 541 686 541C640.3 541 594.7 541 548.8 541C503 541 457 541 411.2 541C365.3 541 319.7 541 274 541C228.3 541 182.7 541 137 541C91.3 541 45.7 541 22.8 541L0 541Z" fill="#1cb4f3"></path><path d="M0 502L22.8 499C45.7 496 91.3 490 137 489.7C182.7 489.3 228.3 494.7 274 488.5C319.7 482.3 365.3 464.7 411.2 460.7C457 456.7 503 466.3 548.8 473C594.7 479.7 640.3 483.3 686 488.5C731.7 493.7 777.3 500.3 823 492.5C868.7 484.7 914.3 462.3 937.2 451.2L960 440L960 541L937.2 541C914.3 541 868.7 541 823 541C777.3 541 731.7 541 686 541C640.3 541 594.7 541 548.8 541C503 541 457 541 411.2 541C365.3 541 319.7 541 274 541C228.3 541 182.7 541 137 541C91.3 541 45.7 541 22.8 541L0 541Z" fill="#009dff"></path><path d="M0 517L22.8 512.8C45.7 508.7 91.3 500.3 137 499.7C182.7 499 228.3 506 274 507.7C319.7 509.3 365.3 505.7 411.2 503C457 500.3 503 498.7 548.8 500.3C594.7 502 640.3 507 686 508.8C731.7 510.7 777.3 509.3 823 507.2C868.7 505 914.3 502 937.2 500.5L960 499L960 541L937.2 541C914.3 541 868.7 541 823 541C777.3 541 731.7 541 686 541C640.3 541 594.7 541 548.8 541C503 541 457 541 411.2 541C365.3 541 319.7 541 274 541C228.3 541 182.7 541 137 541C91.3 541 45.7 541 22.8 541L0 541Z" fill="#007fff"></path><path d="M0 533L22.8 526.7C45.7 520.3 91.3 507.7 137 506.8C182.7 506 228.3 517 274 516.5C319.7 516 365.3 504 411.2 498C457 492 503 492 548.8 497.3C594.7 502.7 640.3 513.3 686 520.2C731.7 527 777.3 530 823 529.7C868.7 529.3 914.3 525.7 937.2 523.8L960 522L960 541L937.2 541C914.3 541 868.7 541 823 541C777.3 541 731.7 541 686 541C640.3 541 594.7 541 548.8 541C503 541 457 541 411.2 541C365.3 541 319.7 541 274 541C228.3 541 182.7 541 137 541C91.3 541 45.7 541 22.8 541L0 541Z" fill="#5356ff"></path></svg>