<?xml version="1.0" encoding="UTF-8"?>
<!DOCTYPE svg PUBLIC "-//W3C//DTD SVG 1.1//EN" "http://www.w3.org/Graphics/SVG/1.1/DTD/svg11.dtd">
<svg xmlns="http://www.w3.org/2000/svg" version="1.1" width="1500px" height="1500px" style="shape-rendering:geometricPrecision; text-rendering:geometricPrecision; image-rendering:optimizeQuality; fill-rule:evenodd; clip-rule:evenodd" xmlns:xlink="http://www.w3.org/1999/xlink">
<g><path style="opacity:1" fill="#def4ff" d="M -0.5,-0.5 C 499.5,-0.5 999.5,-0.5 1499.5,-0.5C 1499.5,499.5 1499.5,999.5 1499.5,1499.5C 999.5,1499.5 499.5,1499.5 -0.5,1499.5C -0.5,999.5 -0.5,499.5 -0.5,-0.5 Z"/></g>
<g><path style="opacity:1" fill="#77d3ff" d="M 1155.5,3.5 C 1156.08,2.22671 1156.74,2.22671 1157.5,3.5C 1157.03,4.46295 1156.36,4.46295 1155.5,3.5 Z"/></g>
<g><path style="opacity:1" fill="#8cdbff" d="M 1405.5,32.5 C 1407.34,32.6395 1407.67,33.3061 1406.5,34.5C 1405.7,34.0431 1405.37,33.3764 1405.5,32.5 Z"/></g>
<g><path style="opacity:1" fill="#74d3ff" d="M 879.5,132.5 C 880.289,132.783 880.956,133.283 881.5,134C 880.184,134.528 879.517,134.028 879.5,132.5 Z"/></g>
<g><path style="opacity:1" fill="#7ad4ff" d="M 1057.5,136.5 C 1059.98,136.747 1059.98,137.413 1057.5,138.5C 1056.54,138.03 1056.54,137.363 1057.5,136.5 Z"/></g>
<g><path style="opacity:1" fill="#66ceff" d="M 380.5,176.5 C 381.289,176.783 381.956,177.283 382.5,178C 381.184,178.528 380.517,178.028 380.5,176.5 Z"/></g>
<g><path style="opacity:1" fill="#97ddff" d="M 41.5,196.5 C 43.337,196.639 43.6704,197.306 42.5,198.5C 41.7025,198.043 41.3691,197.376 41.5,196.5 Z"/></g>
<g><path style="opacity:1" fill="#81d8ff" d="M 912.5,241.5 C 914.337,241.639 914.67,242.306 913.5,243.5C 912.702,243.043 912.369,242.376 912.5,241.5 Z"/></g>
<g><path style="opacity:1" fill="#79d3ff" d="M 988.5,312.5 C 989.776,313.386 989.776,314.386 988.5,315.5C 987.438,314.575 987.438,313.575 988.5,312.5 Z"/></g>
<g><path style="opacity:1" fill="#6ccfff" d="M 840.5,325.5 C 843.001,325.511 843.168,326.178 841,327.5C 840.536,326.906 840.369,326.239 840.5,325.5 Z"/></g>
<g><path style="opacity:1" fill="#97ddff" d="M 232.5,386.5 C 236.051,387.186 236.217,388.186 233,389.5C 232.517,388.552 232.351,387.552 232.5,386.5 Z"/></g>
<g><path style="opacity:1" fill="#77d3ff" d="M 597.5,440.5 C 598.773,441.077 598.773,441.743 597.5,442.5C 596.537,442.03 596.537,441.363 597.5,440.5 Z"/></g>
<g><path style="opacity:1" fill="#87d8ff" d="M 1214.5,445.5 C 1215.31,446.469 1216.31,447.302 1217.5,448C 1215.23,449.608 1214.23,448.775 1214.5,445.5 Z"/></g>
<g><path style="opacity:1" fill="#96deff" d="M 298.5,532.5 C 300.085,533.002 300.585,534.002 300,535.5C 298.961,534.756 298.461,533.756 298.5,532.5 Z"/></g>
<g><path style="opacity:1" fill="#77d3ff" d="M 445.5,568.5 C 447.337,568.639 447.67,569.306 446.5,570.5C 445.702,570.043 445.369,569.376 445.5,568.5 Z"/></g>
<g><path style="opacity:1" fill="#94ddff" d="M 238.5,715.5 C 241.137,717.154 240.803,717.654 237.5,717C 238.056,716.617 238.389,716.117 238.5,715.5 Z"/></g>
<g><path style="opacity:1" fill="#91ddff" d="M 1260.5,749.5 C 1261.71,750.497 1261.55,751.497 1260,752.5C 1259.53,751.423 1259.7,750.423 1260.5,749.5 Z"/></g>
<g><path style="opacity:1" fill="#8adaff" d="M 355.5,830.5 C 356.376,830.369 357.043,830.702 357.5,831.5C 355.192,832.873 354.525,832.54 355.5,830.5 Z"/></g>
<g><path style="opacity:1" fill="#5ccaff" d="M 250.5,854.5 C 253.001,854.511 253.168,855.178 251,856.5C 250.536,855.906 250.369,855.239 250.5,854.5 Z"/></g>
<g><path style="opacity:1" fill="#76d5ff" d="M 216.5,937.5 C 218.646,937.696 218.812,938.696 217,940.5C 216.517,939.552 216.351,938.552 216.5,937.5 Z"/></g>
<g><path style="opacity:1" fill="#7bd5ff" d="M 857.5,944.5 C 859.337,944.639 859.67,945.306 858.5,946.5C 857.702,946.043 857.369,945.376 857.5,944.5 Z"/></g>
<g><path style="opacity:1" fill="#65ceff" d="M 333.5,968.5 C 336.001,968.511 336.168,969.178 334,970.5C 333.536,969.906 333.369,969.239 333.5,968.5 Z"/></g>
<g><path style="opacity:1" fill="#6ccfff" d="M 707.5,1020.5 C 710.001,1020.51 710.168,1021.18 708,1022.5C 707.536,1021.91 707.369,1021.24 707.5,1020.5 Z"/></g>
<g><path style="opacity:1" fill="#84d8ff" d="M 1399.5,1063.5 C 1401.03,1062.21 1402.7,1062.21 1404.5,1063.5C 1403,1064.05 1401.33,1064.05 1399.5,1063.5 Z"/></g>
<g><path style="opacity:1" fill="#7ed7ff" d="M 1352.5,1170.5 C 1354.46,1170.95 1354.8,1171.95 1353.5,1173.5C 1352.61,1172.68 1352.28,1171.68 1352.5,1170.5 Z"/></g>
<g><path style="opacity:1" fill="#95deff" d="M 316.5,1194.5 C 318.337,1194.64 318.67,1195.31 317.5,1196.5C 316.702,1196.04 316.369,1195.38 316.5,1194.5 Z"/></g>
<g><path style="opacity:1" fill="#87d9ff" d="M 631.5,1216.5 C 633.646,1216.7 633.812,1217.7 632,1219.5C 631.517,1218.55 631.351,1217.55 631.5,1216.5 Z"/></g>
<g><path style="opacity:1" fill="#9dddff" d="M 901.5,1252.5 C 903.76,1253.24 903.927,1254.24 902,1255.5C 901.517,1254.55 901.351,1253.55 901.5,1252.5 Z"/></g>
<g><path style="opacity:1" fill="#67cfff" d="M 1088.5,1260.5 C 1089.77,1261.08 1089.77,1261.74 1088.5,1262.5C 1087.54,1262.03 1087.54,1261.36 1088.5,1260.5 Z"/></g>
<g><path style="opacity:1" fill="#6dd0ff" d="M 1447.5,1382.5 C 1448.29,1382.78 1448.96,1383.28 1449.5,1384C 1448.18,1384.53 1447.52,1384.03 1447.5,1382.5 Z"/></g>
</svg>
