<?xml version="1.0" encoding="UTF-8"?>
<!DOCTYPE svg PUBLIC "-//W3C//DTD SVG 1.1//EN" "http://www.w3.org/Graphics/SVG/1.1/DTD/svg11.dtd">
<svg xmlns="http://www.w3.org/2000/svg" version="1.1" width="3139px" height="444px" style="shape-rendering:geometricPrecision; text-rendering:geometricPrecision; image-rendering:optimizeQuality; fill-rule:evenodd; clip-rule:evenodd" xmlns:xlink="http://www.w3.org/1999/xlink">
<g><path style="opacity:0.985" fill="#346574" d="M 2752.5,171.5 C 2686.02,182.768 2619.02,188.102 2551.5,187.5C 2479.7,186.011 2408.04,182.344 2336.5,176.5C 2319.05,174.302 2301.38,172.802 2283.5,172C 2261.51,170.783 2239.51,169.949 2217.5,169.5C 2111.84,168.622 2006.17,168.289 1900.5,168.5C 1866.98,166.972 1833.32,165.305 1799.5,163.5C 1763.87,161.146 1728.21,157.813 1692.5,153.5C 1672.34,152.039 1652.34,149.705 1632.5,146.5C 1621.74,144.281 1610.74,142.948 1599.5,142.5C 1584.97,139.844 1570.3,137.844 1555.5,136.5C 1656.37,124.689 1756.7,108.522 1856.5,88C 1918.82,73.5355 1981.49,60.8688 2044.5,50C 2100.82,40.977 2157.49,36.977 2214.5,38C 2266.55,40.3413 2317.88,47.6746 2368.5,60C 2458.78,83.9827 2548.11,110.983 2636.5,141C 2675.03,152.131 2713.7,162.297 2752.5,171.5 Z"/></g>
<g><path style="opacity:0.995" fill="#0e5b7d" d="M 3138.5,62.5 C 3138.5,86.1667 3138.5,109.833 3138.5,133.5C 3136.63,134.263 3134.96,135.263 3133.5,136.5C 3129.42,137.702 3125.42,139.202 3121.5,141C 3102.46,151.352 3083.13,160.852 3063.5,169.5C 3047.29,177.772 3030.96,185.772 3014.5,193.5C 3005.22,197.427 2995.89,201.26 2986.5,205C 2981.14,207.94 2975.81,210.773 2970.5,213.5C 2922.65,233.509 2873.99,251.676 2824.5,268C 2791.38,277.779 2758.05,286.612 2724.5,294.5C 2700.42,298.435 2676.42,302.102 2652.5,305.5C 2640.98,306.07 2629.65,307.07 2618.5,308.5C 2581.17,309.197 2543.84,309.53 2506.5,309.5C 2474.78,308.615 2443.12,306.782 2411.5,304C 2325.51,294.691 2239.51,285.525 2153.5,276.5C 2140.83,274.833 2128.17,273.167 2115.5,271.5C 2089.39,267.989 2063.06,265.322 2036.5,263.5C 2002.48,260.386 1968.48,257.053 1934.5,253.5C 1853.11,243.972 1771.77,232.972 1690.5,220.5C 1637.55,211.173 1584.21,203.506 1530.5,197.5C 1451.88,186.923 1372.88,184.756 1293.5,191C 1278.54,192.034 1263.87,194.2 1249.5,197.5C 1241.45,197.784 1233.45,198.617 1225.5,200C 1200.24,204.871 1175.24,210.371 1150.5,216.5C 1110.16,224.919 1070.16,234.586 1030.5,245.5C 1004,251.364 977.662,257.531 951.5,264C 927.931,268.812 904.598,273.646 881.5,278.5C 839.035,285.475 796.369,290.475 753.5,293.5C 689.835,294.779 626.168,294.779 562.5,293.5C 409.112,284.085 256.112,288.418 103.5,306.5C 68.8079,309.836 34.1412,313.836 -0.5,318.5C -0.5,284.5 -0.5,250.5 -0.5,216.5C 0.391047,215.89 1.39105,215.557 2.5,215.5C 62.5453,230.242 123.212,241.909 184.5,250.5C 197.511,253.626 210.844,255.293 224.5,255.5C 234.805,256.979 245.139,258.312 255.5,259.5C 255.918,260.222 256.584,260.722 257.5,261C 309.55,266.316 361.55,267.816 413.5,265.5C 414.5,265.5 415.5,265.5 416.5,265.5C 432.033,265.839 447.367,265.173 462.5,263.5C 463.833,263.5 465.167,263.5 466.5,263.5C 494.269,262.858 521.603,259.858 548.5,254.5C 604.537,247.105 660.204,237.438 715.5,225.5C 725.842,223.776 736.176,221.943 746.5,220C 747.056,219.617 747.389,219.117 747.5,218.5C 756.585,215.881 765.918,213.881 775.5,212.5C 785.53,211.242 795.197,208.908 804.5,205.5C 806.099,205.768 807.432,205.434 808.5,204.5C 817.525,203.558 826.192,201.558 834.5,198.5C 835.167,198.5 835.833,198.5 836.5,198.5C 846.098,196.767 855.432,194.434 864.5,191.5C 884.293,186.386 904.293,181.553 924.5,177C 926.175,176.015 927.842,175.181 929.5,174.5C 950.83,175.434 972.164,175.934 993.5,176C 1093.55,152.213 1194.88,137.546 1297.5,132C 1334.89,130.978 1372.22,131.978 1409.5,135C 1436.41,138.249 1463.41,140.749 1490.5,142.5C 1512.29,141.337 1533.96,139.337 1555.5,136.5C 1570.3,137.844 1584.97,139.844 1599.5,142.5C 1610.28,144.561 1621.28,145.894 1632.5,146.5C 1652.34,149.705 1672.34,152.039 1692.5,153.5C 1724.76,159.283 1757.43,162.616 1790.5,163.5C 1826.95,166.545 1863.62,168.212 1900.5,168.5C 2006.17,168.289 2111.84,168.622 2217.5,169.5C 2257.03,171.596 2296.69,173.93 2336.5,176.5C 2408.04,182.344 2479.7,186.011 2551.5,187.5C 2619.02,188.102 2686.02,182.768 2752.5,171.5C 2761.88,173.011 2771.22,174.845 2780.5,177C 2785.5,177.667 2790.5,177.667 2795.5,177C 2859.14,163.506 2921.48,145.506 2982.5,123C 3035.01,103.891 3087.01,83.7248 3138.5,62.5 Z"/></g>
<g><path style="opacity:0.987" fill="#346574" d="M 929.5,174.5 C 927.842,175.181 926.175,176.015 924.5,177C 904.293,181.553 884.293,186.386 864.5,191.5C 854.815,192.921 845.481,195.255 836.5,198.5C 835.833,198.5 835.167,198.5 834.5,198.5C 825.629,200.083 816.962,202.083 808.5,204.5C 807.432,205.434 806.099,205.768 804.5,205.5C 794.621,207.387 784.955,209.72 775.5,212.5C 765.918,213.881 756.585,215.881 747.5,218.5C 736.542,220.055 725.875,222.388 715.5,225.5C 660.204,237.438 604.537,247.105 548.5,254.5C 520.966,257.032 493.633,260.032 466.5,263.5C 465.167,263.5 463.833,263.5 462.5,263.5C 446.986,263.613 431.653,264.28 416.5,265.5C 415.5,265.5 414.5,265.5 413.5,265.5C 360.688,266.926 308.021,264.926 255.5,259.5C 245.139,258.312 234.805,256.979 224.5,255.5C 211.337,253.521 198.004,251.855 184.5,250.5C 123.212,241.909 62.5453,230.242 2.5,215.5C 27.9269,203.287 53.2603,190.787 78.5,178C 131.419,155.213 185.419,135.213 240.5,118C 312.219,97.6977 385.219,90.3644 459.5,96C 509.623,100.684 559.29,108.351 608.5,119C 671.267,134.822 734.601,148.488 798.5,160C 841.898,167.34 885.565,172.173 929.5,174.5 Z"/></g>
<g><path style="opacity:1" fill="#005082" d="M 3138.5,133.5 C 3138.5,196.5 3138.5,259.5 3138.5,322.5C 3000.54,331.248 2862.54,339.414 2724.5,347C 2578.59,354.928 2432.59,357.594 2286.5,355C 2251.82,354.047 2217.15,352.714 2182.5,351C 2082.8,344.64 1983.13,337.807 1883.5,330.5C 1871.02,328.185 1858.35,326.185 1845.5,324.5C 1844.83,324.5 1844.17,324.5 1843.5,324.5C 1840.83,322.882 1837.83,322.215 1834.5,322.5C 1816.69,319.599 1798.69,317.099 1780.5,315C 1767.87,313.356 1755.2,312.189 1742.5,311.5C 1733.37,309.91 1724.04,308.91 1714.5,308.5C 1705.21,307.392 1695.87,306.726 1686.5,306.5C 1672.43,306.557 1658.43,305.891 1644.5,304.5C 1630.37,302.863 1616.03,302.196 1601.5,302.5C 1561,301.335 1520.34,301.169 1479.5,302C 1464.67,302.709 1450,303.542 1435.5,304.5C 1420.87,305.973 1406.21,306.973 1391.5,307.5C 1373.95,308.389 1356.62,310.056 1339.5,312.5C 1339.17,312.5 1338.83,312.5 1338.5,312.5C 1334.51,312.116 1330.84,312.783 1327.5,314.5C 1321.61,314.45 1315.94,315.116 1310.5,316.5C 1306.15,316.334 1301.82,316.501 1297.5,317C 1296.58,317.278 1295.92,317.778 1295.5,318.5C 1290.09,318.701 1284.76,319.368 1279.5,320.5C 1277.83,320.5 1276.17,320.5 1274.5,320.5C 1271.22,320.42 1268.22,321.087 1265.5,322.5C 1256.92,323.114 1248.59,324.447 1240.5,326.5C 1240.17,326.5 1239.83,326.5 1239.5,326.5C 1224.38,328.298 1209.38,330.631 1194.5,333.5C 1188.92,333.871 1183.59,334.871 1178.5,336.5C 1172.6,336.883 1166.93,337.883 1161.5,339.5C 1161.17,339.5 1160.83,339.5 1160.5,339.5C 1156.61,339.646 1152.95,340.313 1149.5,341.5C 1144.02,342.804 1138.35,343.804 1132.5,344.5C 1060.54,348.011 988.539,350.345 916.5,351.5C 862.1,351.051 807.767,348.884 753.5,345C 667.221,337.616 580.887,330.949 494.5,325C 390.835,319.345 287.501,323.012 184.5,336C 122.532,343.621 60.8654,353.121 -0.5,364.5C -0.5,349.5 -0.5,334.5 -0.5,319.5C 34.326,315.332 68.9927,310.999 103.5,306.5C 256.112,288.418 409.112,284.085 562.5,293.5C 590.229,294.733 618.062,295.733 646,296.5C 681.817,296.654 717.65,295.654 753.5,293.5C 796.369,290.475 839.035,285.475 881.5,278.5C 931.866,270.162 981.532,259.162 1030.5,245.5C 1070.16,234.586 1110.16,224.919 1150.5,216.5C 1183.59,210.014 1216.59,203.681 1249.5,197.5C 1263.87,194.2 1278.54,192.034 1293.5,191C 1372.88,184.756 1451.88,186.923 1530.5,197.5C 1583.7,205.148 1637.03,212.815 1690.5,220.5C 1771.77,232.972 1853.11,243.972 1934.5,253.5C 2007.22,262.416 2080.22,270.083 2153.5,276.5C 2239.51,285.525 2325.51,294.691 2411.5,304C 2443.12,306.782 2474.78,308.615 2506.5,309.5C 2522,310.167 2537.66,310.5 2553.5,310.5C 2575.36,310.707 2597.02,310.04 2618.5,308.5C 2629.65,307.07 2640.98,306.07 2652.5,305.5C 2676.91,303.681 2700.91,300.014 2724.5,294.5C 2758.05,286.612 2791.38,277.779 2824.5,268C 2873.99,251.676 2922.65,233.509 2970.5,213.5C 2985.86,208.167 3000.52,201.501 3014.5,193.5C 3030.96,185.772 3047.29,177.772 3063.5,169.5C 3065.85,169.162 3068.19,168.662 3070.5,168C 3091.88,157.979 3112.88,147.479 3133.5,136.5C 3134.96,135.263 3136.63,134.263 3138.5,133.5 Z"/></g>
<g><path style="opacity:1" fill="#055480" d="M 3133.5,136.5 C 3112.88,147.479 3091.88,157.979 3070.5,168C 3068.19,168.662 3065.85,169.162 3063.5,169.5C 3083.13,160.852 3102.46,151.352 3121.5,141C 3125.42,139.202 3129.42,137.702 3133.5,136.5 Z"/></g>
<g><path style="opacity:1" fill="#246078" d="M 1599.5,142.5 C 1610.74,142.948 1621.74,144.281 1632.5,146.5C 1621.28,145.894 1610.28,144.561 1599.5,142.5 Z"/></g>
<g><path style="opacity:1" fill="#296277" d="M 1692.5,153.5 C 1728.21,157.813 1763.87,161.146 1799.5,163.5C 1796.5,163.5 1793.5,163.5 1790.5,163.5C 1757.43,162.616 1724.76,159.283 1692.5,153.5 Z"/></g>
<g><path style="opacity:1" fill="#236078" d="M 1790.5,163.5 C 1793.5,163.5 1796.5,163.5 1799.5,163.5C 1833.32,165.305 1866.98,166.972 1900.5,168.5C 1863.62,168.212 1826.95,166.545 1790.5,163.5 Z"/></g>
<g><path style="opacity:1" fill="#2a6277" d="M 2217.5,169.5 C 2239.51,169.949 2261.51,170.783 2283.5,172C 2301.38,172.802 2319.05,174.302 2336.5,176.5C 2296.69,173.93 2257.03,171.596 2217.5,169.5 Z"/></g>
<g><path style="opacity:1" fill="#205f79" d="M 864.5,191.5 C 855.432,194.434 846.098,196.767 836.5,198.5C 845.481,195.255 854.815,192.921 864.5,191.5 Z"/></g>
<g><path style="opacity:1" fill="#035381" d="M 1249.5,197.5 C 1216.59,203.681 1183.59,210.014 1150.5,216.5C 1175.24,210.371 1200.24,204.871 1225.5,200C 1233.45,198.617 1241.45,197.784 1249.5,197.5 Z"/></g>
<g><path style="opacity:1" fill="#035381" d="M 1530.5,197.5 C 1584.21,203.506 1637.55,211.173 1690.5,220.5C 1637.03,212.815 1583.7,205.148 1530.5,197.5 Z"/></g>
<g><path style="opacity:1" fill="#246078" d="M 834.5,198.5 C 826.192,201.558 817.525,203.558 808.5,204.5C 816.962,202.083 825.629,200.083 834.5,198.5 Z"/></g>
<g><path style="opacity:1" fill="#035381" d="M 3014.5,193.5 C 3000.52,201.501 2985.86,208.167 2970.5,213.5C 2975.81,210.773 2981.14,207.94 2986.5,205C 2995.89,201.26 3005.22,197.427 3014.5,193.5 Z"/></g>
<g><path style="opacity:1" fill="#226079" d="M 804.5,205.5 C 795.197,208.908 785.53,211.242 775.5,212.5C 784.955,209.72 794.621,207.387 804.5,205.5 Z"/></g>
<g><path style="opacity:1" fill="#216079" d="M 747.5,218.5 C 747.389,219.117 747.056,219.617 746.5,220C 736.176,221.943 725.842,223.776 715.5,225.5C 725.875,222.388 736.542,220.055 747.5,218.5 Z"/></g>
<g><path style="opacity:1" fill="#035381" d="M 1030.5,245.5 C 981.532,259.162 931.866,270.162 881.5,278.5C 904.598,273.646 927.931,268.812 951.5,264C 977.662,257.531 1004,251.364 1030.5,245.5 Z"/></g>
<g><path style="opacity:1" fill="#246078" d="M 184.5,250.5 C 198.004,251.855 211.337,253.521 224.5,255.5C 210.844,255.293 197.511,253.626 184.5,250.5 Z"/></g>
<g><path style="opacity:1" fill="#035381" d="M 1934.5,253.5 C 1968.48,257.053 2002.48,260.386 2036.5,263.5C 2062.62,266.879 2088.95,269.545 2115.5,271.5C 2128.17,273.167 2140.83,274.833 2153.5,276.5C 2080.22,270.083 2007.22,262.416 1934.5,253.5 Z"/></g>
<g><path style="opacity:1" fill="#1b5e7a" d="M 255.5,259.5 C 308.021,264.926 360.688,266.926 413.5,265.5C 361.55,267.816 309.55,266.316 257.5,261C 256.584,260.722 255.918,260.222 255.5,259.5 Z"/></g>
<g><path style="opacity:1" fill="#1d5f7a" d="M 548.5,254.5 C 521.603,259.858 494.269,262.858 466.5,263.5C 493.633,260.032 520.966,257.032 548.5,254.5 Z"/></g>
<g><path style="opacity:1" fill="#266178" d="M 462.5,263.5 C 447.367,265.173 432.033,265.839 416.5,265.5C 431.653,264.28 446.986,263.613 462.5,263.5 Z"/></g>
<g><path style="opacity:1" fill="#0a597e" d="M 2036.5,263.5 C 2063.06,265.322 2089.39,267.989 2115.5,271.5C 2088.95,269.545 2062.62,266.879 2036.5,263.5 Z"/></g>
<g><path style="opacity:1" fill="#025381" d="M 562.5,293.5 C 626.168,294.779 689.835,294.779 753.5,293.5C 717.65,295.654 681.817,296.654 646,296.5C 618.062,295.733 590.229,294.733 562.5,293.5 Z"/></g>
<g><path style="opacity:1" fill="#045381" d="M 2724.5,294.5 C 2700.91,300.014 2676.91,303.681 2652.5,305.5C 2676.42,302.102 2700.42,298.435 2724.5,294.5 Z"/></g>
<g><path style="opacity:1" fill="#2a2c83" d="M 1599.5,302.5 C 1614.33,303.53 1629.33,304.197 1644.5,304.5C 1658.43,305.891 1672.43,306.557 1686.5,306.5C 1695.6,308.33 1704.94,309.33 1714.5,309.5C 1723.77,310.918 1733.1,311.585 1742.5,311.5C 1772.92,315.969 1803.59,319.636 1834.5,322.5C 1837.27,323.657 1840.27,324.324 1843.5,324.5C 1844.17,324.5 1844.83,324.5 1845.5,324.5C 1845.92,325.222 1846.58,325.722 1847.5,326C 1859.45,328.047 1871.45,329.547 1883.5,330.5C 1894.57,332.304 1905.57,334.304 1916.5,336.5C 1921.95,338.02 1927.61,339.02 1933.5,339.5C 1937.89,339.844 1942.23,340.51 1946.5,341.5C 1955.59,343.795 1964.93,345.462 1974.5,346.5C 1982.06,348.305 1989.73,349.639 1997.5,350.5C 2002.62,351.989 2007.95,352.989 2013.5,353.5C 2013.83,353.5 2014.17,353.5 2014.5,353.5C 2016.91,354.768 2019.57,355.435 2022.5,355.5C 2025.48,355.963 2028.48,356.296 2031.5,356.5C 2037.19,358.707 2043.19,360.04 2049.5,360.5C 2053.36,360.808 2057.03,361.475 2060.5,362.5C 2064.92,363.972 2069.59,364.638 2074.5,364.5C 2075.92,365.451 2077.59,365.784 2079.5,365.5C 2082.22,366.913 2085.22,367.58 2088.5,367.5C 2088.83,367.5 2089.17,367.5 2089.5,367.5C 2102.26,370.45 2115.26,372.783 2128.5,374.5C 2135.33,376.47 2142.33,377.47 2149.5,377.5C 2155.19,379.707 2161.19,381.041 2167.5,381.5C 2169.86,381.674 2172.19,382.007 2174.5,382.5C 2177.59,383.785 2180.92,384.451 2184.5,384.5C 2198.81,386.588 2213.14,388.588 2227.5,390.5C 2230.12,392.265 2233.12,392.932 2236.5,392.5C 2305.7,403.189 2375.36,410.856 2445.5,415.5C 2451.12,416.354 2456.79,416.687 2462.5,416.5C 2463.95,417.302 2465.62,417.802 2467.5,418C 2483.49,419.092 2499.49,419.925 2515.5,420.5C 2588.45,424.035 2661.45,425.368 2734.5,424.5C 2754.67,424.074 2774.67,423.407 2794.5,422.5C 2796.83,422.5 2799.17,422.5 2801.5,422.5C 2829.01,421.595 2856.34,420.261 2883.5,418.5C 2884.17,418.5 2884.83,418.5 2885.5,418.5C 2919.54,417.414 2953.54,415.581 2987.5,413C 3004.7,412.06 3021.7,410.56 3038.5,408.5C 3042.45,407.728 3046.45,407.395 3050.5,407.5C 3058.5,407.067 3066.5,406.567 3074.5,406C 3076.06,405.79 3077.39,405.29 3078.5,404.5C 3098.52,403.422 3118.52,402.088 3138.5,400.5C 3138.5,414.833 3138.5,429.167 3138.5,443.5C 2092.17,443.5 1045.83,443.5 -0.5,443.5C -0.5,432.167 -0.5,420.833 -0.5,409.5C 1.85684,409.663 4.19018,409.497 6.5,409C 17.1049,405.629 27.7716,402.796 38.5,400.5C 41.9404,399.489 45.2737,398.489 48.5,397.5C 56.5911,394.611 64.9244,392.611 73.5,391.5C 79.0952,390.768 84.4285,389.435 89.5,387.5C 100.587,383.982 111.92,381.316 123.5,379.5C 128.052,378.943 132.385,377.943 136.5,376.5C 138.042,375.699 139.708,375.366 141.5,375.5C 151.138,374.374 160.471,372.374 169.5,369.5C 183.455,366.909 197.455,364.576 211.5,362.5C 233.37,360.018 255.037,357.018 276.5,353.5C 283.412,352.114 290.412,351.447 297.5,351.5C 302.75,351.698 307.75,351.031 312.5,349.5C 357.133,346.592 401.8,345.925 446.5,347.5C 453.27,349.075 460.27,349.741 467.5,349.5C 468.167,349.5 468.833,349.5 469.5,349.5C 479.965,350.971 490.632,351.638 501.5,351.5C 503.379,352.341 505.379,352.675 507.5,352.5C 520.626,354.475 533.96,355.809 547.5,356.5C 549.5,356.5 551.5,356.5 553.5,356.5C 583.567,361.216 613.9,364.883 644.5,367.5C 645.167,367.5 645.833,367.5 646.5,367.5C 662.66,369.483 678.994,371.15 695.5,372.5C 698.962,373.482 702.629,373.815 706.5,373.5C 713.96,374.872 721.626,375.539 729.5,375.5C 729.833,375.5 730.167,375.5 730.5,375.5C 754.29,377.856 778.29,379.189 802.5,379.5C 844.083,380.111 885.417,378.444 926.5,374.5C 934.056,374.69 941.389,374.023 948.5,372.5C 956.177,371.943 963.844,371.276 971.5,370.5C 978.678,369.8 985.678,368.8 992.5,367.5C 993.167,367.5 993.833,367.5 994.5,367.5C 998.078,367.451 1001.41,366.785 1004.5,365.5C 1004.83,365.5 1005.17,365.5 1005.5,365.5C 1010.43,365.771 1015.1,365.104 1019.5,363.5C 1026.74,361.941 1034.08,360.941 1041.5,360.5C 1048.81,360.118 1055.81,358.785 1062.5,356.5C 1063.5,356.5 1064.5,356.5 1065.5,356.5C 1070.79,356.375 1075.79,355.375 1080.5,353.5C 1097.97,350.493 1115.31,347.493 1132.5,344.5C 1138.35,343.804 1144.02,342.804 1149.5,341.5C 1153.46,341.749 1157.12,341.082 1160.5,339.5C 1160.83,339.5 1161.17,339.5 1161.5,339.5C 1167.48,339.58 1173.15,338.58 1178.5,336.5C 1183.86,336.051 1189.2,335.384 1194.5,334.5C 1209.77,332.568 1224.77,329.901 1239.5,326.5C 1239.83,326.5 1240.17,326.5 1240.5,326.5C 1250.08,325.988 1259.42,324.655 1268.5,322.5C 1269.5,322.5 1270.5,322.5 1271.5,322.5C 1274.43,322.435 1277.09,321.768 1279.5,320.5C 1284.76,319.368 1290.09,318.701 1295.5,318.5C 1300.67,318.066 1305.67,317.4 1310.5,316.5C 1315.94,315.116 1321.61,314.45 1327.5,314.5C 1331.39,314.354 1335.05,313.687 1338.5,312.5C 1338.83,312.5 1339.17,312.5 1339.5,312.5C 1357.06,311.678 1374.39,310.011 1391.5,307.5C 1406.21,306.973 1420.87,305.973 1435.5,304.5C 1490.15,302.885 1544.82,302.218 1599.5,302.5 Z"/></g>
<g><path style="opacity:1" fill="#203a83" d="M 1601.5,302.5 C 1600.83,302.5 1600.17,302.5 1599.5,302.5C 1544.82,302.218 1490.15,302.885 1435.5,304.5C 1450,303.542 1464.67,302.709 1479.5,302C 1520.34,301.169 1561,301.335 1601.5,302.5 Z"/></g>
<g><path style="opacity:1" fill="#213883" d="M 1599.5,302.5 C 1600.17,302.5 1600.83,302.5 1601.5,302.5C 1616.03,302.196 1630.37,302.863 1644.5,304.5C 1629.33,304.197 1614.33,303.53 1599.5,302.5 Z"/></g>
<g><path style="opacity:1" fill="#1c3e83" d="M 1686.5,306.5 C 1695.87,306.726 1705.21,307.392 1714.5,308.5C 1714.5,308.833 1714.5,309.167 1714.5,309.5C 1704.94,309.33 1695.6,308.33 1686.5,306.5 Z"/></g>
<g><path style="opacity:1" fill="#174283" d="M 1714.5,309.5 C 1714.5,309.167 1714.5,308.833 1714.5,308.5C 1724.04,308.91 1733.37,309.91 1742.5,311.5C 1733.1,311.585 1723.77,310.918 1714.5,309.5 Z"/></g>
<g><path style="opacity:1" fill="#07567f" d="M 2618.5,308.5 C 2597.02,310.04 2575.36,310.707 2553.5,310.5C 2537.66,310.5 2522,310.167 2506.5,309.5C 2543.84,309.53 2581.17,309.197 2618.5,308.5 Z"/></g>
<g><path style="opacity:1" fill="#035381" d="M 103.5,306.5 C 68.9927,310.999 34.326,315.332 -0.5,319.5C -0.5,319.167 -0.5,318.833 -0.5,318.5C 34.1412,313.836 68.8079,309.836 103.5,306.5 Z"/></g>
<g><path style="opacity:1" fill="#194183" d="M 1391.5,307.5 C 1374.39,310.011 1357.06,311.678 1339.5,312.5C 1356.62,310.056 1373.95,308.389 1391.5,307.5 Z"/></g>
<g><path style="opacity:1" fill="#174383" d="M 1338.5,312.5 C 1335.05,313.687 1331.39,314.354 1327.5,314.5C 1330.84,312.783 1334.51,312.116 1338.5,312.5 Z"/></g>
<g><path style="opacity:1" fill="#174383" d="M 1742.5,311.5 C 1755.2,312.189 1767.87,313.356 1780.5,315C 1798.69,317.099 1816.69,319.599 1834.5,322.5C 1803.59,319.636 1772.92,315.969 1742.5,311.5 Z"/></g>
<g><path style="opacity:1" fill="#1c3e83" d="M 1310.5,316.5 C 1305.67,317.4 1300.67,318.066 1295.5,318.5C 1295.92,317.778 1296.58,317.278 1297.5,317C 1301.82,316.501 1306.15,316.334 1310.5,316.5 Z"/></g>
<g><path style="opacity:1" fill="#164383" d="M 1274.5,320.5 C 1273.5,321.167 1272.5,321.833 1271.5,322.5C 1270.5,322.5 1269.5,322.5 1268.5,322.5C 1267.5,322.5 1266.5,322.5 1265.5,322.5C 1268.22,321.087 1271.22,320.42 1274.5,320.5 Z"/></g>
<g><path style="opacity:1" fill="#233683" d="M 1274.5,320.5 C 1276.17,320.5 1277.83,320.5 1279.5,320.5C 1277.09,321.768 1274.43,322.435 1271.5,322.5C 1272.5,321.833 1273.5,321.167 1274.5,320.5 Z"/></g>
<g><path style="opacity:1" fill="#004183" d="M 1132.5,344.5 C 1115.31,347.493 1097.97,350.493 1080.5,353.5C 1075.26,353.882 1070.26,354.882 1065.5,356.5C 1064.5,356.5 1063.5,356.5 1062.5,356.5C 1055.23,357.097 1048.23,358.43 1041.5,360.5C 1034.08,360.941 1026.74,361.941 1019.5,363.5C 1014.57,363.229 1009.9,363.896 1005.5,365.5C 1005.17,365.5 1004.83,365.5 1004.5,365.5C 1001.81,365.336 999.146,365.503 996.5,366C 995.584,366.278 994.918,366.778 994.5,367.5C 993.833,367.5 993.167,367.5 992.5,367.5C 986.129,367.488 979.796,367.988 973.5,369C 972.584,369.278 971.918,369.778 971.5,370.5C 963.844,371.276 956.177,371.943 948.5,372.5C 940.953,372.406 933.62,373.072 926.5,374.5C 885.417,378.444 844.083,380.111 802.5,379.5C 778.693,377.43 754.693,376.096 730.5,375.5C 730.167,375.5 729.833,375.5 729.5,375.5C 722.049,374.028 714.382,373.361 706.5,373.5C 702.629,373.815 698.962,373.482 695.5,372.5C 679.451,369.461 663.118,367.795 646.5,367.5C 645.833,367.5 645.167,367.5 644.5,367.5C 614.387,363.19 584.053,359.523 553.5,356.5C 551.5,356.5 549.5,356.5 547.5,356.5C 534.399,354.257 521.066,352.923 507.5,352.5C 505.379,352.675 503.379,352.341 501.5,351.5C 491.039,349.965 480.372,349.299 469.5,349.5C 468.833,349.5 468.167,349.5 467.5,349.5C 460.738,347.847 453.738,347.18 446.5,347.5C 401.8,345.925 357.133,346.592 312.5,349.5C 307.234,349.189 302.234,349.855 297.5,351.5C 290.412,351.447 283.412,352.114 276.5,353.5C 254.534,355.305 232.867,358.305 211.5,362.5C 197.455,364.576 183.455,366.909 169.5,369.5C 159.857,370.627 150.524,372.627 141.5,375.5C 139.708,375.366 138.042,375.699 136.5,376.5C 131.727,376.124 127.393,377.124 123.5,379.5C 111.92,381.316 100.587,383.982 89.5,387.5C 83.7629,387.708 78.4296,389.042 73.5,391.5C 64.9244,392.611 56.5911,394.611 48.5,397.5C 44.5842,397.025 41.2509,398.025 38.5,400.5C 27.7716,402.796 17.1049,405.629 6.5,409C 4.19018,409.497 1.85684,409.663 -0.5,409.5C -0.5,394.5 -0.5,379.5 -0.5,364.5C 60.8654,353.121 122.532,343.621 184.5,336C 287.501,323.012 390.835,319.345 494.5,325C 580.887,330.949 667.221,337.616 753.5,345C 807.767,348.884 862.1,351.051 916.5,351.5C 988.539,350.345 1060.54,348.011 1132.5,344.5 Z"/></g>
<g><path style="opacity:1" fill="#004183" d="M 3138.5,322.5 C 3138.5,348.5 3138.5,374.5 3138.5,400.5C 3118.52,402.088 3098.52,403.422 3078.5,404.5C 3068.92,404.591 3059.59,405.591 3050.5,407.5C 3046.45,407.395 3042.45,407.728 3038.5,408.5C 2987.33,411.49 2936.33,414.823 2885.5,418.5C 2884.83,418.5 2884.17,418.5 2883.5,418.5C 2855.95,418.674 2828.62,420.008 2801.5,422.5C 2799.17,422.5 2796.83,422.5 2794.5,422.5C 2774.49,422.285 2754.49,422.618 2734.5,423.5C 2661.46,424.273 2588.46,422.939 2515.5,419.5C 2497.84,418.376 2480.17,417.376 2462.5,416.5C 2456.79,416.687 2451.12,416.354 2445.5,415.5C 2425.31,413.844 2404.98,412.011 2384.5,410C 2335.17,404.167 2285.83,398.333 2236.5,392.5C 2233.78,391.087 2230.78,390.42 2227.5,390.5C 2213.14,388.588 2198.81,386.588 2184.5,384.5C 2181.46,382.989 2178.12,382.322 2174.5,382.5C 2172.19,382.007 2169.86,381.674 2167.5,381.5C 2161.81,379.293 2155.81,377.959 2149.5,377.5C 2142.33,377.47 2135.33,376.47 2128.5,374.5C 2115.83,370.998 2102.83,368.665 2089.5,367.5C 2089.17,367.5 2088.83,367.5 2088.5,367.5C 2085.83,365.882 2082.83,365.215 2079.5,365.5C 2077.59,365.784 2075.92,365.451 2074.5,364.5C 2070.1,362.896 2065.43,362.229 2060.5,362.5C 2057.03,361.475 2053.36,360.808 2049.5,360.5C 2043.74,358.546 2037.74,357.213 2031.5,356.5C 2028.48,356.296 2025.48,355.963 2022.5,355.5C 2020.16,353.96 2017.5,353.294 2014.5,353.5C 2014.17,353.5 2013.83,353.5 2013.5,353.5C 2008.52,351.261 2003.18,350.261 1997.5,350.5C 1989.73,349.639 1982.06,348.305 1974.5,346.5C 1965.52,343.557 1956.19,341.891 1946.5,341.5C 1942.23,340.51 1937.89,339.844 1933.5,339.5C 1928.17,337.333 1922.5,336.333 1916.5,336.5C 1905.57,334.304 1894.57,332.304 1883.5,330.5C 1983.13,337.807 2082.8,344.64 2182.5,351C 2217.15,352.714 2251.82,354.047 2286.5,355C 2432.59,357.594 2578.59,354.928 2724.5,347C 2862.54,339.414 3000.54,331.248 3138.5,322.5 Z"/></g>
<g><path style="opacity:1" fill="#144483" d="M 1834.5,322.5 C 1837.83,322.215 1840.83,322.882 1843.5,324.5C 1840.27,324.324 1837.27,323.657 1834.5,322.5 Z"/></g>
<g><path style="opacity:1" fill="#213883" d="M 1265.5,322.5 C 1266.5,322.5 1267.5,322.5 1268.5,322.5C 1259.42,324.655 1250.08,325.988 1240.5,326.5C 1248.59,324.447 1256.92,323.114 1265.5,322.5 Z"/></g>
<g><path style="opacity:1" fill="#1d3d83" d="M 1845.5,324.5 C 1858.35,326.185 1871.02,328.185 1883.5,330.5C 1871.45,329.547 1859.45,328.047 1847.5,326C 1846.58,325.722 1845.92,325.222 1845.5,324.5 Z"/></g>
<g><path style="opacity:1" fill="#1f3b83" d="M 1239.5,326.5 C 1224.77,329.901 1209.77,332.568 1194.5,334.5C 1194.5,334.167 1194.5,333.833 1194.5,333.5C 1209.38,330.631 1224.38,328.298 1239.5,326.5 Z"/></g>
<g><path style="opacity:1" fill="#174383" d="M 1194.5,333.5 C 1194.5,333.833 1194.5,334.167 1194.5,334.5C 1189.2,335.384 1183.86,336.051 1178.5,336.5C 1183.59,334.871 1188.92,333.871 1194.5,333.5 Z"/></g>
<g><path style="opacity:1" fill="#194183" d="M 1178.5,336.5 C 1173.15,338.58 1167.48,339.58 1161.5,339.5C 1166.93,337.883 1172.6,336.883 1178.5,336.5 Z"/></g>
<g><path style="opacity:1" fill="#1c3683" d="M 1916.5,336.5 C 1922.5,336.333 1928.17,337.333 1933.5,339.5C 1927.61,339.02 1921.95,338.02 1916.5,336.5 Z"/></g>
<g><path style="opacity:1" fill="#154583" d="M 1160.5,339.5 C 1157.12,341.082 1153.46,341.749 1149.5,341.5C 1152.95,340.313 1156.61,339.646 1160.5,339.5 Z"/></g>
<g><path style="opacity:1" fill="#163883" d="M 1946.5,341.5 C 1956.19,341.891 1965.52,343.557 1974.5,346.5C 1964.93,345.462 1955.59,343.795 1946.5,341.5 Z"/></g>
<g><path style="opacity:1" fill="#153983" d="M 446.5,347.5 C 453.738,347.18 460.738,347.847 467.5,349.5C 460.27,349.741 453.27,349.075 446.5,347.5 Z"/></g>
<g><path style="opacity:1" fill="#123a83" d="M 469.5,349.5 C 480.372,349.299 491.039,349.965 501.5,351.5C 490.632,351.638 479.965,350.971 469.5,349.5 Z"/></g>
<g><path style="opacity:1" fill="#1a3683" d="M 312.5,349.5 C 307.75,351.031 302.75,351.698 297.5,351.5C 302.234,349.855 307.234,349.189 312.5,349.5 Z"/></g>
<g><path style="opacity:1" fill="#163983" d="M 1997.5,350.5 C 2003.18,350.261 2008.52,351.261 2013.5,353.5C 2007.95,352.989 2002.62,351.989 1997.5,350.5 Z"/></g>
<g><path style="opacity:1" fill="#193783" d="M 507.5,352.5 C 521.066,352.923 534.399,354.257 547.5,356.5C 533.96,355.809 520.626,354.475 507.5,352.5 Z"/></g>
<g><path style="opacity:1" fill="#1c3583" d="M 1080.5,353.5 C 1075.79,355.375 1070.79,356.375 1065.5,356.5C 1070.26,354.882 1075.26,353.882 1080.5,353.5 Z"/></g>
<g><path style="opacity:1" fill="#1c3583" d="M 2014.5,353.5 C 2017.5,353.294 2020.16,353.96 2022.5,355.5C 2019.57,355.435 2016.91,354.768 2014.5,353.5 Z"/></g>
<g><path style="opacity:1" fill="#1e3483" d="M 276.5,353.5 C 255.037,357.018 233.37,360.018 211.5,362.5C 232.867,358.305 254.534,355.305 276.5,353.5 Z"/></g>
<g><path style="opacity:1" fill="#1c3583" d="M 553.5,356.5 C 584.053,359.523 614.387,363.19 644.5,367.5C 613.9,364.883 583.567,361.216 553.5,356.5 Z"/></g>
<g><path style="opacity:1" fill="#1b3683" d="M 2031.5,356.5 C 2037.74,357.213 2043.74,358.546 2049.5,360.5C 2043.19,360.04 2037.19,358.707 2031.5,356.5 Z"/></g>
<g><path style="opacity:1" fill="#1f3483" d="M 1062.5,356.5 C 1055.81,358.785 1048.81,360.118 1041.5,360.5C 1048.23,358.43 1055.23,357.097 1062.5,356.5 Z"/></g>
<g><path style="opacity:1" fill="#193783" d="M 2060.5,362.5 C 2065.43,362.229 2070.1,362.896 2074.5,364.5C 2069.59,364.638 2064.92,363.972 2060.5,362.5 Z"/></g>
<g><path style="opacity:1" fill="#1e3483" d="M 1019.5,363.5 C 1015.1,365.104 1010.43,365.771 1005.5,365.5C 1009.9,363.896 1014.57,363.229 1019.5,363.5 Z"/></g>
<g><path style="opacity:1" fill="#1b3683" d="M 1004.5,365.5 C 1001.41,366.785 998.078,367.451 994.5,367.5C 994.918,366.778 995.584,366.278 996.5,366C 999.146,365.503 1001.81,365.336 1004.5,365.5 Z"/></g>
<g><path style="opacity:1" fill="#1b3683" d="M 2079.5,365.5 C 2082.83,365.215 2085.83,365.882 2088.5,367.5C 2085.22,367.58 2082.22,366.913 2079.5,365.5 Z"/></g>
<g><path style="opacity:1" fill="#173883" d="M 2089.5,367.5 C 2102.83,368.665 2115.83,370.998 2128.5,374.5C 2115.26,372.783 2102.26,370.45 2089.5,367.5 Z"/></g>
<g><path style="opacity:1" fill="#1a3683" d="M 992.5,367.5 C 985.678,368.8 978.678,369.8 971.5,370.5C 971.918,369.778 972.584,369.278 973.5,369C 979.796,367.988 986.129,367.488 992.5,367.5 Z"/></g>
<g><path style="opacity:1" fill="#163983" d="M 646.5,367.5 C 663.118,367.795 679.451,369.461 695.5,372.5C 678.994,371.15 662.66,369.483 646.5,367.5 Z"/></g>
<g><path style="opacity:1" fill="#163983" d="M 169.5,369.5 C 160.471,372.374 151.138,374.374 141.5,375.5C 150.524,372.627 159.857,370.627 169.5,369.5 Z"/></g>
<g><path style="opacity:1" fill="#133a83" d="M 948.5,372.5 C 941.389,374.023 934.056,374.69 926.5,374.5C 933.62,373.072 940.953,372.406 948.5,372.5 Z"/></g>
<g><path style="opacity:1" fill="#173883" d="M 706.5,373.5 C 714.382,373.361 722.049,374.028 729.5,375.5C 721.626,375.539 713.96,374.872 706.5,373.5 Z"/></g>
<g><path style="opacity:1" fill="#153983" d="M 730.5,375.5 C 754.693,376.096 778.693,377.43 802.5,379.5C 778.29,379.189 754.29,377.856 730.5,375.5 Z"/></g>
<g><path style="opacity:1" fill="#163983" d="M 136.5,376.5 C 132.385,377.943 128.052,378.943 123.5,379.5C 127.393,377.124 131.727,376.124 136.5,376.5 Z"/></g>
<g><path style="opacity:1" fill="#133a83" d="M 2149.5,377.5 C 2155.81,377.959 2161.81,379.293 2167.5,381.5C 2161.19,381.041 2155.19,379.707 2149.5,377.5 Z"/></g>
<g><path style="opacity:1" fill="#1b3683" d="M 2174.5,382.5 C 2178.12,382.322 2181.46,382.989 2184.5,384.5C 2180.92,384.451 2177.59,383.785 2174.5,382.5 Z"/></g>
<g><path style="opacity:1" fill="#1d3583" d="M 89.5,387.5 C 84.4285,389.435 79.0952,390.768 73.5,391.5C 78.4296,389.042 83.7629,387.708 89.5,387.5 Z"/></g>
<g><path style="opacity:1" fill="#1c3583" d="M 2227.5,390.5 C 2230.78,390.42 2233.78,391.087 2236.5,392.5C 2233.12,392.932 2230.12,392.265 2227.5,390.5 Z"/></g>
<g><path style="opacity:1" fill="#183883" d="M 48.5,397.5 C 45.2737,398.489 41.9404,399.489 38.5,400.5C 41.2509,398.025 44.5842,397.025 48.5,397.5 Z"/></g>
<g><path style="opacity:1" fill="#173883" d="M 2236.5,392.5 C 2285.83,398.333 2335.17,404.167 2384.5,410C 2404.98,412.011 2425.31,413.844 2445.5,415.5C 2375.36,410.856 2305.7,403.189 2236.5,392.5 Z"/></g>
<g><path style="opacity:1" fill="#153983" d="M 3078.5,404.5 C 3077.39,405.29 3076.06,405.79 3074.5,406C 3066.5,406.567 3058.5,407.067 3050.5,407.5C 3059.59,405.591 3068.92,404.591 3078.5,404.5 Z"/></g>
<g><path style="opacity:1" fill="#1f3483" d="M 3038.5,408.5 C 3021.7,410.56 3004.7,412.06 2987.5,413C 2953.54,415.581 2919.54,417.414 2885.5,418.5C 2936.33,414.823 2987.33,411.49 3038.5,408.5 Z"/></g>
<g><path style="opacity:1" fill="#1c3683" d="M 2462.5,416.5 C 2480.17,417.376 2497.84,418.376 2515.5,419.5C 2515.5,419.833 2515.5,420.167 2515.5,420.5C 2499.49,419.925 2483.49,419.092 2467.5,418C 2465.62,417.802 2463.95,417.302 2462.5,416.5 Z"/></g>
<g><path style="opacity:1" fill="#133a83" d="M 2515.5,420.5 C 2515.5,420.167 2515.5,419.833 2515.5,419.5C 2588.46,422.939 2661.46,424.273 2734.5,423.5C 2734.5,423.833 2734.5,424.167 2734.5,424.5C 2661.45,425.368 2588.45,424.035 2515.5,420.5 Z"/></g>
<g><path style="opacity:1" fill="#1a3783" d="M 2883.5,418.5 C 2856.34,420.261 2829.01,421.595 2801.5,422.5C 2828.62,420.008 2855.95,418.674 2883.5,418.5 Z"/></g>
<g><path style="opacity:1" fill="#1a3683" d="M 2794.5,422.5 C 2774.67,423.407 2754.67,424.074 2734.5,424.5C 2734.5,424.167 2734.5,423.833 2734.5,423.5C 2754.49,422.618 2774.49,422.285 2794.5,422.5 Z"/></g>
</svg>
