<?xml version="1.0" encoding="UTF-8"?>
<!DOCTYPE svg PUBLIC "-//W3C//DTD SVG 1.1//EN" "http://www.w3.org/Graphics/SVG/1.1/DTD/svg11.dtd">
<svg xmlns="http://www.w3.org/2000/svg" version="1.1" width="3139px" height="444px" style="shape-rendering:geometricPrecision; text-rendering:geometricPrecision; image-rendering:optimizeQuality; fill-rule:evenodd; clip-rule:evenodd" xmlns:xlink="http://www.w3.org/1999/xlink">
<g><path style="opacity:1" fill="#67c6e3" d="M 2776.5,158.5 C 2719.01,171.312 2660.68,178.812 2601.5,181C 2543.11,182.355 2484.77,181.022 2426.5,177C 2367.17,172.834 2307.84,168.834 2248.5,165C 2144.51,163.756 2040.51,163.09 1936.5,163C 1868.63,162.285 1800.97,158.285 1733.5,151C 1662.28,142.26 1591.28,133.093 1520.5,123.5C 1618.9,115.325 1716.56,101.825 1813.5,83C 1867.5,71.6667 1921.5,60.3333 1975.5,49C 2033.61,36.7587 2092.28,28.4253 2151.5,24C 2230.37,19.3553 2308.03,27.0219 2384.5,47C 2408,52.7241 2431.34,59.0575 2454.5,66C 2526.71,88.7375 2599.05,111.071 2671.5,133C 2706.18,142.84 2741.18,151.34 2776.5,158.5 Z"/></g>
<g><path style="opacity:1" fill="#1cb4f3" d="M 3138.5,34.5 C 3138.5,61.8333 3138.5,89.1667 3138.5,116.5C 3058.08,157.877 2976.08,195.71 2892.5,230C 2834.53,252.434 2775.2,270.434 2714.5,284C 2642.78,297.152 2570.45,302.152 2497.5,299C 2465.1,298.018 2432.76,296.018 2400.5,293C 2234.62,273.976 2068.62,255.976 1902.5,239C 1801.24,226.105 1700.24,211.439 1599.5,195C 1538.59,186.827 1477.42,182.327 1416,181.5C 1366.5,181.722 1317.34,185.889 1268.5,194C 1237.66,199.376 1206.99,205.71 1176.5,213C 1117.82,227.336 1059.15,241.67 1000.5,256C 933.75,271.458 866.084,280.792 797.5,284C 776.333,284.167 755.167,284.333 734,284.5C 662.153,283.683 590.32,282.183 518.5,280C 418.254,277.924 318.254,281.924 218.5,292C 145.42,300.093 72.4202,308.927 -0.5,318.5C -0.5,275.167 -0.5,231.833 -0.5,188.5C 22.2221,193.244 44.8887,198.244 67.5,203.5C 176.399,231.178 287.066,248.678 399.5,256C 455.262,258.677 510.929,257.344 566.5,252C 613.343,246.649 660.009,239.982 706.5,232C 751.951,223.221 797.284,213.888 842.5,204C 906.961,188.634 971.295,173.134 1035.5,157.5C 1102.51,141.797 1170.18,129.631 1238.5,121C 1309.37,112.749 1380.37,111.416 1451.5,117C 1474.53,118.897 1497.53,121.064 1520.5,123.5C 1591.28,133.093 1662.28,142.26 1733.5,151C 1800.97,158.285 1868.63,162.285 1936.5,163C 2040.51,163.09 2144.51,163.756 2248.5,165C 2307.84,168.834 2367.17,172.834 2426.5,177C 2484.77,181.022 2543.11,182.355 2601.5,181C 2660.68,178.812 2719.01,171.312 2776.5,158.5C 2861.48,138.673 2944.48,112.506 3025.5,80C 3063.19,64.8178 3100.86,49.6512 3138.5,34.5 Z"/></g>
<g><path style="opacity:1" fill="#67c6e3" d="M 1035.5,157.5 C 971.295,173.134 906.961,188.634 842.5,204C 797.284,213.888 751.951,223.221 706.5,232C 660.009,239.982 613.343,246.649 566.5,252C 510.929,257.344 455.262,258.677 399.5,256C 287.066,248.678 176.399,231.178 67.5,203.5C 148.293,159.615 232.96,124.781 321.5,99C 403.709,76.1118 487.042,70.7785 571.5,83C 599.319,86.7639 626.986,91.4305 654.5,97C 707.862,108.539 761.195,120.206 814.5,132C 887.415,147.49 961.082,155.99 1035.5,157.5 Z"/></g>
<g><path style="opacity:1" fill="#009cfe" d="M 3138.5,116.5 C 3138.5,180.833 3138.5,245.167 3138.5,309.5C 2984.93,319.977 2831.27,329.144 2677.5,337C 2556.23,342.552 2434.9,344.885 2313.5,344C 2269.5,342.407 2225.5,340.741 2181.5,339C 2089.17,332.405 1996.83,325.905 1904.5,319.5C 1775.74,297.896 1646.08,288.73 1515.5,292C 1455.6,294.29 1395.94,299.29 1336.5,307C 1283.05,314.863 1229.72,323.363 1176.5,332.5C 1091.58,337.741 1006.58,339.907 921.5,339C 897.484,338.38 873.484,337.38 849.5,336C 759.491,329.073 669.491,322.073 579.5,315C 462.368,307.977 345.702,312.643 229.5,329C 152.593,340.581 75.9265,353.415 -0.5,367.5C -0.5,351.167 -0.5,334.833 -0.5,318.5C 72.4202,308.927 145.42,300.093 218.5,292C 318.254,281.924 418.254,277.924 518.5,280C 590.32,282.183 662.153,283.683 734,284.5C 755.167,284.333 776.333,284.167 797.5,284C 866.084,280.792 933.75,271.458 1000.5,256C 1059.15,241.67 1117.82,227.336 1176.5,213C 1206.99,205.71 1237.66,199.376 1268.5,194C 1317.34,185.889 1366.5,181.722 1416,181.5C 1477.42,182.327 1538.59,186.827 1599.5,195C 1700.24,211.439 1801.24,226.105 1902.5,239C 2068.62,255.976 2234.62,273.976 2400.5,293C 2432.76,296.018 2465.1,298.018 2497.5,299C 2570.45,302.152 2642.78,297.152 2714.5,284C 2775.2,270.434 2834.53,252.434 2892.5,230C 2976.08,195.71 3058.08,157.877 3138.5,116.5 Z"/></g>
<g><path style="opacity:1" fill="#5256ff" d="M 1904.5,319.5 C 2014.54,339.841 2124.87,359.341 2235.5,378C 2412.89,404.287 2591.22,414.287 2770.5,408C 2815.85,406.333 2861.18,404.333 2906.5,402C 2983.84,396.433 3061.17,390.933 3138.5,385.5C 3138.5,404.833 3138.5,424.167 3138.5,443.5C 2092.17,443.5 1045.83,443.5 -0.5,443.5C -0.5,435.833 -0.5,428.167 -0.5,420.5C 72.5229,398.994 146.19,379.827 220.5,363C 311.421,342.972 403.421,333.638 496.5,335C 532.543,337.086 568.543,339.753 604.5,343C 677.002,351.986 749.669,359.32 822.5,365C 894.114,368.772 965.447,365.772 1036.5,356C 1083.47,349.116 1130.14,341.282 1176.5,332.5C 1229.72,323.363 1283.05,314.863 1336.5,307C 1395.94,299.29 1455.6,294.29 1515.5,292C 1646.08,288.73 1775.74,297.896 1904.5,319.5 Z"/></g>
<g><path style="opacity:1" fill="#007eff" d="M 3138.5,309.5 C 3138.5,334.833 3138.5,360.167 3138.5,385.5C 3061.17,390.933 2983.84,396.433 2906.5,402C 2861.18,404.333 2815.85,406.333 2770.5,408C 2591.22,414.287 2412.89,404.287 2235.5,378C 2124.87,359.341 2014.54,339.841 1904.5,319.5C 1996.83,325.905 2089.17,332.405 2181.5,339C 2225.5,340.741 2269.5,342.407 2313.5,344C 2434.9,344.885 2556.23,342.552 2677.5,337C 2831.27,329.144 2984.93,319.977 3138.5,309.5 Z"/></g>
<g><path style="opacity:1" fill="#007eff" d="M 1176.5,332.5 C 1130.14,341.282 1083.47,349.116 1036.5,356C 965.447,365.772 894.114,368.772 822.5,365C 749.669,359.32 677.002,351.986 604.5,343C 568.543,339.753 532.543,337.086 496.5,335C 403.421,333.638 311.421,342.972 220.5,363C 146.19,379.827 72.5229,398.994 -0.5,420.5C -0.5,402.833 -0.5,385.167 -0.5,367.5C 75.9265,353.415 152.593,340.581 229.5,329C 345.702,312.643 462.368,307.977 579.5,315C 669.491,322.073 759.491,329.073 849.5,336C 873.484,337.38 897.484,338.38 921.5,339C 1006.58,339.907 1091.58,337.741 1176.5,332.5 Z"/></g>
</svg>
