<svg id="visual" viewBox="0 0 400 75" width="400" height="75" xmlns="http://www.w3.org/2000/svg" xmlns:xlink="http://www.w3.org/1999/xlink" version="1.1"><rect x="0" y="0" width="400" height="75" fill="#000000"></rect><defs><linearGradient id="grad1_0" x1="81.3%" y1="0%" x2="100%" y2="100%"><stop offset="-56.66666666666666%" stop-color="#000000" stop-opacity="1"></stop><stop offset="156.66666666666669%" stop-color="#000000" stop-opacity="1"></stop></linearGradient></defs><defs><linearGradient id="grad2_0" x1="0%" y1="0%" x2="18.8%" y2="100%"><stop offset="-56.66666666666666%" stop-color="#000000" stop-opacity="1"></stop><stop offset="156.66666666666669%" stop-color="#000000" stop-opacity="1"></stop></linearGradient></defs><g transform="translate(400, 0)"><path d="M0 52.5C-5.4 48.4 -10.8 44.4 -17.6 42.5C-24.4 40.6 -32.6 41 -37.1 37.1C-41.6 33.3 -42.4 25.3 -44.3 18.4C-46.3 11.5 -49.4 5.7 -52.5 0L0 0Z" fill="#6554d6"></path></g><g transform="translate(0, 75)"><path d="M0 -52.5C6.7 -50.8 13.4 -49.2 19.1 -46.2C24.8 -43.2 29.5 -39 34.6 -34.6C39.8 -30.3 45.4 -25.9 48.5 -20.1C51.6 -14.3 52 -7.2 52.5 0L0 0Z" fill="#6554d6"></path></g></svg>